<?xml version="1.0" standalone="no"?>
<!DOCTYPE svg PUBLIC "-//W3C//DTD SVG 20010904//EN"
 "http://www.w3.org/TR/2001/REC-SVG-20010904/DTD/svg10.dtd">
<svg version="1.0" xmlns="http://www.w3.org/2000/svg"
 width="700.000000pt" height="700.000000pt" viewBox="0 0 700.000000 700.000000"
 preserveAspectRatio="xMidYMid meet">
<metadata>
Created by potrace 1.11, written by Peter Selinger 2001-2013
</metadata>
<g transform="translate(0.000000,700.000000) scale(0.100000,-0.100000)"
fill="#000000" stroke="none">
<path d="M473 6782 c-23 -2 -33 -9 -34 -20 0 -9 -1 -747 -1 -1639 l-1 -1623
-109 0 -108 0 0 -140 c0 -77 0 -790 0 -1585 0 -795 0 -1470 0 -1500 l0 -55
3280 0 3280 0 0 88 c2 815 -1 4276 -4 4279 -1 2 -477 -234 -1057 -523 -580
-290 -1070 -535 -1090 -545 l-35 -17 0 544 c1 299 -1 544 -4 544 -3 0 -494
-245 -1092 -544 -599 -299 -1088 -539 -1089 -532 0 6 -2 273 -2 594 -2 428 -5
585 -14 590 -6 4 -152 7 -325 6 l-313 0 -3 -602 -2 -602 -328 2 -327 3 -1
1632 c0 898 -3 1635 -6 1638 -6 6 -560 12 -615 7z"/>
<path d="M1750 5579 l0 -109 328 2 327 3 0 105 0 105 -327 1 -328 1 0 -108z"/>
<path d="M1750 5250 l0 -110 328 0 328 0 0 110 0 110 -328 0 -328 0 0 -110z"/>
<path d="M1750 4921 l0 -110 328 2 327 2 1 108 1 107 -328 0 -329 0 0 -109z"/>
</g>
</svg>
